Coordinates
version=1
nRows=54
nColumns=12
inDegrees=yes

Units are S.I. units (second, meters, Newtons, ...)
Angles are in degrees

endheader
time	SC_y	SC_z	SC_x	AC_y	AC_z	AC_x	GH_y	GH_z	GH_yy	EL_x	PS_y
       0.0               -30.3          19.59          46.08          52.11         -2.073          4.872          174.2         -14.52          75.01          108.4          149.4
   0.01939               -30.3          19.59          46.07          52.11         -2.074          4.873          174.2         -14.52          74.98          108.4          149.3
   0.03877               -30.3           19.6          46.06          52.11         -2.075          4.875          174.2         -14.51          74.95          108.4          149.3
   0.05816               -30.3           19.6          46.06          52.11         -2.076          4.876          174.2         -14.51          74.91          108.4          149.3
   0.07754              -30.29           19.6          46.05          52.12         -2.077          4.878          174.2         -14.51          74.87          108.4          149.3
   0.09693              -30.29           19.6          46.04          52.12         -2.079           4.88          174.2         -14.51          74.83          108.4          149.3
    0.1163              -30.29          19.61          46.03          52.12          -2.08          4.881          174.2         -14.51          74.79          108.4          149.3
    0.1357              -30.28          19.61          46.02          52.12         -2.081          4.883          174.1         -14.51          74.75          108.4          149.3
    0.1551              -30.28          19.61          46.02          52.13         -2.083          4.885          174.1         -14.51           74.7          108.4          149.2
    0.1745              -30.28          19.61          46.01          52.13         -2.085          4.887          174.1          -14.5          74.65          108.4          149.2
    0.1939              -30.27          19.62           46.0          52.13         -2.086           4.89          174.1          -14.5          74.59          108.4          149.2
    0.2132              -30.27          19.62          45.98          52.13         -2.088          4.892          174.1          -14.5          74.53          108.4          149.2
    0.2326              -30.26          19.62          45.97          52.14          -2.09          4.895          174.1          -14.5          74.47          108.4          149.1
     0.252              -30.26          19.63          45.96          52.14         -2.093          4.898          174.1         -14.49           74.4          108.4          149.1
    0.2714              -30.25          19.63          45.94          52.15         -2.095          4.901          174.1         -14.49          74.32          108.4          149.1
    0.2908              -30.25          19.64          45.93          52.15         -2.098          4.904          174.1         -14.49          74.24          108.4          149.0
    0.3102              -30.24          19.64          45.91          52.16           -2.1          4.908          174.0         -14.48          74.15          108.4          149.0
    0.3296              -30.24          19.65          45.89          52.16         -2.103          4.912          174.0         -14.48          74.06          108.4          149.0
     0.349              -30.23          19.65          45.87          52.17         -2.107          4.917          174.0         -14.48          73.95          108.4          148.9
    0.3683              -30.22          19.66          45.85          52.17          -2.11          4.922          174.0         -14.47          73.84          108.4          148.9
    0.3877              -30.21          19.67          45.83          52.18         -2.114          4.927          174.0         -14.47          73.71          108.4          148.8
    0.4071               -30.2          19.68           45.8          52.19         -2.119          4.933          173.9         -14.46          73.57          108.4          148.8
    0.4265              -30.19          19.69          45.77           52.2         -2.124          4.939          173.9         -14.45          73.42          108.4          148.7
    0.4459              -30.18           19.7          45.74          52.21         -2.129          4.946          173.9         -14.45          73.25          108.4          148.6
    0.4653              -30.16          19.71           45.7          52.22         -2.135          4.954          173.9         -14.44          73.06          108.4          148.5
    0.4847              -30.15          19.72          45.66          52.23         -2.142          4.963          173.8         -14.43          72.85          108.4          148.5
     0.504              -30.13          19.73          45.61          52.24          -2.15          4.973          173.8         -14.42          72.61          108.4          148.4
    0.5234              -30.11          19.75          45.56          52.26         -2.158          4.984          173.7         -14.41          72.34          108.4          148.3
    0.5428              -30.09          19.77           45.5          52.28         -2.168          4.997          173.7          -14.4          72.04          108.4          148.1
    0.5622              -30.07          19.79          45.44           52.3         -2.179          5.012          173.6         -14.38           71.7          108.4          148.0
    0.5816              -30.04          19.81          45.36          52.32         -2.191          5.028          173.6         -14.37          71.31          108.5          147.8
     0.601              -30.01          19.84          45.28          52.34         -2.205          5.047          173.5         -14.35          70.86          108.5          147.6
    0.6204              -29.97          19.87          45.18          52.37         -2.222          5.069          173.4         -14.33          70.35          108.5          147.4
    0.6397              -29.93           19.9          45.06          52.41         -2.241          5.094          173.3         -14.31          69.75          108.5          147.2
    0.6591              -29.88          19.94          44.93          52.45         -2.263          5.124          173.2         -14.28          69.05          108.5          146.9
    0.6785              -29.82          19.99          44.77          52.49          -2.29          5.158          173.0         -14.24          68.22          108.5          146.5
    0.6979              -29.75          20.05          44.58          52.55         -2.321            5.2          172.8         -14.21          67.23          108.5          146.1
    0.7173              -29.67          20.12          44.35          52.62         -2.359           5.25          172.6         -14.16          66.05          108.5          145.6
    0.7367              -29.56           20.2          44.08           52.7         -2.404           5.31          172.4          -14.1          64.63          108.5          145.0
    0.7561              -29.44           20.3          43.74           52.8          -2.46          5.383          172.1         -14.03          62.88          108.5          144.3
    0.7754              -29.29          20.43          43.33          52.92         -2.528          5.474          171.7         -13.94          60.73          108.5          143.4
    0.7948               -29.1          20.58          42.81          53.07         -2.614          5.587          171.3         -13.84          58.05          108.5          142.3
    0.8142              -28.85          20.78          42.16          53.26         -2.722          5.729          170.7          -13.7          54.67          108.6          140.9
    0.8336              -28.55          21.03          41.33          53.51         -2.858           5.91          169.9         -13.53          50.37          108.6          139.1
     0.853              -28.16          21.36          40.27          53.82         -3.034          6.142          169.0         -13.31          44.87          108.6          136.8
    0.8724              -27.65          21.77          38.91          54.22         -3.259           6.44          167.8         -13.02          37.82          108.7          133.9
    0.8918              -27.01           22.3          37.18          54.73         -3.546           6.82          166.2         -12.66           28.8          108.8          130.1
    0.9112               -26.2          22.96          34.99          55.38         -3.908          7.297          164.2         -12.21          17.47          108.8          125.4
    0.9305              -25.22          23.77          32.33          56.16         -4.348          7.879          161.8         -11.65          3.655          108.9          119.7
    0.9499              -24.08           24.7          29.25          57.07         -4.858          8.554          159.1         -11.01         -12.36          109.1          113.0
    0.9693              -22.85          25.72          25.91          58.05         -5.411          9.285          156.1         -10.31         -29.69          109.2          105.8
    0.9887              -21.61          26.73          22.57          59.04         -5.964          10.02          153.1         -9.616         -47.03          109.3          98.58
     1.008              -20.47          27.67          19.49          59.95         -6.474          10.69          150.3         -8.973         -63.04          109.4          91.92
     1.027              -19.49          28.48          16.83          60.73         -6.914          11.27          147.9         -8.418         -76.85          109.5          86.17
